<svg width="24" height="24" viewBox="0 0 24 24" fill="none" xmlns="http://www.w3.org/2000/svg">
<mask id="mask0_278_4" style="mask-type:alpha" maskUnits="userSpaceOnUse" x="0" y="0" width="24" height="24">
<rect width="24" height="24" fill="#D9D9D9"/>
</mask>
<g mask="url(#mask0_278_4)">
<path d="M18.5421 19.577L13.2613 14.296C12.7613 14.7088 12.1863 15.0319 11.5363 15.2652C10.8863 15.4986 10.2139 15.6152 9.51906 15.6152C7.80989 15.6152 6.36339 15.0235 5.17956 13.84C3.99573 12.6565 3.40381 11.2103 3.40381 9.50149C3.40381 7.79282 3.99556 6.34615 5.17906 5.16149C6.36256 3.97699 7.80873 3.38474 9.51756 3.38474C11.2262 3.38474 12.6729 3.97665 13.8576 5.16048C15.0421 6.34432 15.6343 7.79082 15.6343 9.49999C15.6343 10.2142 15.5145 10.8962 15.2748 11.5462C15.035 12.1962 14.7151 12.7616 14.3151 13.2422L19.5958 18.523L18.5421 19.577ZM9.51906 14.1155C10.8076 14.1155 11.8989 13.6683 12.7931 12.774C13.6874 11.8798 14.1346 10.7885 14.1346 9.49999C14.1346 8.21148 13.6874 7.12015 12.7931 6.22598C11.8989 5.33165 10.8076 4.88449 9.51906 4.88449C8.23056 4.88449 7.13923 5.33165 6.24506 6.22598C5.35073 7.12015 4.90356 8.21148 4.90356 9.49999C4.90356 10.7885 5.35073 11.8798 6.24506 12.774C7.13923 13.6683 8.23056 14.1155 9.51906 14.1155Z" fill="#464646"/>
</g>
</svg>
