<svg width="30" height="30" viewBox="0 0 30 30" fill="none" xmlns="http://www.w3.org/2000/svg">
<mask id="mask0_276_2421" style="mask-type:alpha" maskUnits="userSpaceOnUse" x="0" y="0" width="30" height="30">
<rect x="0.0859375" y="0.0856934" width="29.8286" height="29.8286" fill="#D9D9D9"/>
</mask>
<g mask="url(#mask0_276_2421)">
<path d="M25.7506 8.7857C25.7506 7.16998 25.1913 5.80284 24.0727 4.68427C22.9541 3.5657 21.587 3.00641 19.9713 3.00641V1.32855C22.0427 1.32855 23.8034 2.05355 25.2534 3.50355C26.7034 4.95355 27.4284 6.71427 27.4284 8.7857H25.7506ZM22.457 8.7857C22.457 8.10212 22.2136 7.51695 21.7268 7.03016C21.24 6.54337 20.6549 6.29998 19.9713 6.29998V4.62212C21.1106 4.62212 22.079 5.02605 22.8765 5.83391C23.674 6.64177 24.0934 7.6257 24.1349 8.7857H22.457ZM14.9999 21.8357C16.5534 21.8357 17.874 21.2919 18.9615 20.2044C20.049 19.1169 20.5927 17.7964 20.5927 16.2428C20.5927 14.6893 20.049 13.3687 18.9615 12.2812C17.874 11.1937 16.5534 10.65 14.9999 10.65C13.4463 10.65 12.1258 11.1937 11.0383 12.2812C9.95075 13.3687 9.407 14.6893 9.407 16.2428C9.407 17.7964 9.95075 19.1169 11.0383 20.2044C12.1258 21.2919 13.4463 21.8357 14.9999 21.8357ZM14.9999 19.35C14.1299 19.35 13.3945 19.0496 12.7938 18.4489C12.1931 17.8482 11.8927 17.1128 11.8927 16.2428C11.8927 15.3728 12.1931 14.6375 12.7938 14.0368C13.3945 13.4361 14.1299 13.1357 14.9999 13.1357C15.8699 13.1357 16.6052 13.4361 17.2059 14.0368C17.8066 14.6375 18.107 15.3728 18.107 16.2428C18.107 17.1128 17.8066 17.8482 17.2059 18.4489C16.6052 19.0496 15.8699 19.35 14.9999 19.35ZM5.057 26.1857C4.37343 26.1857 3.78825 25.9423 3.30147 25.4555C2.81468 24.9687 2.57129 24.3836 2.57129 23.7V8.7857C2.57129 8.10212 2.81468 7.51695 3.30147 7.03016C3.78825 6.54337 4.37343 6.29998 5.057 6.29998H8.972L11.2713 3.81427H18.7284V7.54284C19.412 7.54284 19.9972 7.78623 20.484 8.27302C20.9708 8.7598 21.2141 9.34498 21.2141 10.0286H27.4284V23.7C27.4284 24.3836 27.185 24.9687 26.6983 25.4555C26.2115 25.9423 25.6263 26.1857 24.9427 26.1857H5.057Z" fill="#1563DF"/>
</g>
</svg>
