<svg width="24" height="24" viewBox="0 0 24 24" fill="none" xmlns="http://www.w3.org/2000/svg">
<path d="M5.92041 4.5C6.66741 4.50006 7.2915 5.12244 7.2915 5.90527C7.2914 6.68807 6.6677 7.31049 5.92041 7.31055C5.17307 7.31055 4.54942 6.68811 4.54932 5.90527C4.54932 5.12239 5.17331 4.5 5.92041 4.5Z" stroke="#464646"/>
<path d="M11.9756 4.5C12.723 4.50006 13.3467 5.12243 13.3467 5.90527C13.3466 6.68795 12.7227 7.31049 11.9756 7.31055C11.2286 7.31055 10.6046 6.68804 10.6045 5.90527C10.6045 5.1224 11.2285 4.5 11.9756 4.5Z" stroke="#464646"/>
<path d="M18.1289 4.5C18.8763 4.50006 19.5 5.12232 19.5 5.90527C19.4999 6.688 18.8757 7.31049 18.1289 7.31055C17.382 7.31055 16.7579 6.68804 16.7578 5.90527C16.7578 5.12231 17.3814 4.5 18.1289 4.5Z" stroke="#464646"/>
<path d="M5.87109 10.6044C6.61818 10.6044 7.24219 11.2266 7.24219 12.0097C7.24218 12.7926 6.61825 13.4149 5.87109 13.4149C5.12399 13.4148 4.50001 12.7925 4.5 12.0097C4.5 11.2268 5.12406 10.6045 5.87109 10.6044Z" stroke="#464646"/>
<path d="M11.9268 10.6044C12.6742 10.6045 13.2979 11.2265 13.2979 12.0097C13.2978 12.7926 12.6737 13.4149 11.9268 13.4149C11.1797 13.4149 10.5557 12.7927 10.5557 12.0097C10.5557 11.2265 11.1794 10.6044 11.9268 10.6044Z" stroke="#464646"/>
<path d="M18.0811 10.6044C18.8281 10.6046 19.4512 11.2266 19.4512 12.0097C19.4512 12.7926 18.8282 13.4147 18.0811 13.4149C17.3333 13.4149 16.709 12.7925 16.709 12.0097C16.709 11.2267 17.3336 10.6044 18.0811 10.6044Z" stroke="#464646"/>
<path d="M5.91406 16.6896C6.66113 16.6896 7.28516 17.3118 7.28516 18.0949C7.28505 18.8779 6.66109 19.5002 5.91406 19.5002C5.16707 19.5001 4.54307 18.8773 4.54297 18.0949C4.54297 17.312 5.16696 16.6898 5.91406 16.6896Z" stroke="#464646"/>
<path d="M11.9697 16.6896C12.7167 16.6896 13.3408 17.3118 13.3408 18.0949C13.3407 18.8779 12.7166 19.5002 11.9697 19.5002C11.2224 19.5001 10.5987 18.8774 10.5986 18.0949C10.5986 17.312 11.2226 16.6898 11.9697 16.6896Z" stroke="#464646"/>
<path d="M18.123 16.6896C18.8699 16.6897 19.4941 17.3119 19.4941 18.0949C19.494 18.8779 18.8702 19.5001 18.123 19.5002C17.3762 19.5002 16.7521 18.8775 16.752 18.0949C16.752 17.3119 17.3761 16.6896 18.123 16.6896Z" stroke="#464646"/>
</svg>
