<svg width="24" height="24" viewBox="0 0 24 24" fill="none" xmlns="http://www.w3.org/2000/svg">
<path d="M19.2021 17.8317H8.50295C8.06199 17.8317 7.70459 17.4743 7.70459 17.0333C7.70459 16.5924 8.06199 16.235 8.50295 16.235H19.2018C19.6428 16.235 20.0002 16.5924 20.0002 17.0333C20.0002 17.4743 19.6431 17.8317 19.2021 17.8317Z" fill="#464646"/>
<path d="M19.2021 12.8203H8.50295C8.06199 12.8203 7.70459 12.4629 7.70459 12.0219C7.70459 11.5809 8.06199 11.2235 8.50295 11.2235H19.2018C19.6428 11.2235 20.0002 11.5809 20.0002 12.0219C20.0005 12.4629 19.6431 12.8203 19.2021 12.8203Z" fill="#464646"/>
<path d="M19.2021 7.80922H8.50295C8.06199 7.80922 7.70459 7.45182 7.70459 7.01086C7.70459 6.56989 8.06199 6.21249 8.50295 6.21249H19.2018C19.6428 6.21249 20.0002 6.56989 20.0002 7.01086C20.0002 7.45182 19.6431 7.80922 19.2021 7.80922Z" fill="#464646"/>
<path d="M5.0722 8.14465C5.66436 8.14465 6.1444 7.66461 6.1444 7.07245C6.1444 6.48029 5.66436 6.00024 5.0722 6.00024C4.48004 6.00024 4 6.48029 4 7.07245C4 7.66461 4.48004 8.14465 5.0722 8.14465Z" fill="#464646"/>
<path d="M5.0722 13.0942C5.66436 13.0942 6.1444 12.6142 6.1444 12.022C6.1444 11.4298 5.66436 10.9498 5.0722 10.9498C4.48004 10.9498 4 11.4298 4 12.022C4 12.6142 4.48004 13.0942 5.0722 13.0942Z" fill="#464646"/>
<path d="M5.0722 18.0437C5.66436 18.0437 6.1444 17.5637 6.1444 16.9715C6.1444 16.3794 5.66436 15.8993 5.0722 15.8993C4.48004 15.8993 4 16.3794 4 16.9715C4 17.5637 4.48004 18.0437 5.0722 18.0437Z" fill="#464646"/>
</svg>
