<svg viewBox="0 0 1994.11 456.11" version="1.2" data-sanitized-baseprofile="tiny" xmlns="http://www.w3.org/2000/svg" data-sanitized-data-name="Layer 1" data-name="Layer 1" id="Layer_1">
  <g>
    <g>
      <g>
        <path stroke-width="0" fill="#b4b5b5" d="M287.34,54.38c53.01.3,85.77,3.91,137.61,12.82-25.1-4.31-41.04-4.01-66.59-5.17-29.48-1.34-59.07-2.69-88.59-2.07-52.06,1.08-117.65,6.29-163.21,28.23-45.94,22.13-69.53,61.45-64.93,104.17,5.3,49.15,57.2,90.17,109.21,110.99-57.72-23.1-118.32-62.27-128.41-117.74-12.23-67.28,38.4-104.72,120.05-121.59,16.89-3.49,34.18-5.53,51.5-7.02,30.97-2.67,62.23-2.79,93.37-2.62Z"></path>
        <path stroke-width="0" fill="#b4b5b5" d="M394.83,62.94c-32.69-3.48-64.62-4.8-99.91-5-31.13-.17-62.4-.05-93.37,2.62-17.32,1.49-34.61,3.53-51.5,7.02-74.32,15.36-127.95,57.02-115.72,124.27,8.62,47.39,49.78,80.19,98.83,103.93,3.14,1.43,6.29,2.82,9.44,4.16-.45-.22-.9-.44-1.35-.66-48.63-21.83-94.66-60.79-99.63-106.92-4.6-42.72,18.99-82.04,64.93-104.17,45.56-21.95,111.15-27.15,163.21-28.23,29.52-.62,59.11.74,88.59,2.07,11.73.53,24.09.6,36.47.91Z"></path>
        <path stroke-width="0" fill="#1785d4" d="M191.42,310.9c-43.19-22.03-55.3-44.4-65.97-88.47-6.94-28.69,2.68-56.1,27.46-75.21,19.53-15.05,45.82-23.21,70.7-29.14,25.53-6.09,46.11-10.07,72.14-12.84,59.05-6.3,108.04-8.96,167.03-2.99,73.53,7.44,146.56,13.91,218.49,29.47,13.66,2.96,27.4,5.89,40.96,9.2-4.25-2.16-111.41-38.55-256.26-62.42-41.82-6.89-103.69-12.17-159.6-11.89-27.18.13-54.23.72-81.29,2.8-48.06,3.7-105.84,13.16-139.03,44.32-78.83,74.03-5.98,157.89,82.42,194.8,18.02,7.52,38.6,13.74,58.37,16.39-7.84-1.05-21.23-6.77-35.43-14.01Z"></path>
        <path stroke-width="0" fill="#1785d4" d="M206.11,122.3c14.59-4.92,29.75-8.34,43.99-10.67,74.48-12.18,137.92-16.94,212.67-9.38,73.53,7.44,146.56,13.91,218.49,29.47,9.04,1.96,18.09,3.94,27.12,6-73.72-24.04-153.79-37.04-232.05-45.27-78.62-8.26-168.42-13.71-246.77-.21-58.78,10.13-136.23,38.35-132.45,103.48,1.98,34.08,19.67,70.97,50.42,92.55,22.92,16.08,49.62,28.09,76.83,37.42-46.01-15.78-87.03-56.52-96.22-100.84-11.16-53.82,26.11-85.07,77.97-102.54Z"></path>
      </g>
      <g>
        <path stroke-width="0" fill="#231f20" d="M983.09,137.8c-46.57-20.5-108.45-42.63-187.7-61.3-172.8-40.69-304.04-40.92-358.85-42.98-94.69-3.55-164.07,6.24-164.07,6.24l.69.08c79.08-5.29,222.12-2.41,400.12,49.81,51.58,15.13,97.7,31.75,134.91,48.15h174.9Z"></path>
        <path stroke-width="0" fill="#b4b5b5" d="M890.64,137.8c-48.11-20.17-107.74-40.25-181.12-57.46-208.57-48.93-352.7-46.16-419.35-41.42,83.12-3.61,217.08,2.03,383.1,50.74,51.58,15.13,97.7,31.75,134.91,48.15h82.46Z"></path>
      </g>
    </g>
    <g>
      <path stroke-width="0" fill="#231f20" d="M262.09,241.7c-33.17,0-49.76-13.16-49.76-39.47,0-26.31,16.58-39.47,49.76-39.47h99.51v26.31h-94.54c-16.59,0-24.88,4.39-24.88,13.16,0,8.77,8.29,13.16,24.88,13.16h44.78c33.17,0,49.76,13.16,49.76,39.47,0,26.31-16.59,39.47-49.76,39.47h-99.51v-26.31h94.54c16.58,0,24.88-4.39,24.88-13.16,0-8.77-8.29-13.16-24.88-13.16h-44.78Z"></path>
      <path stroke-width="0" fill="#231f20" d="M421.31,219.86v74.47h-29.85v-131.57h30.55s59.01,102.36,59.01,102.36l59.01-102.36h30.55v131.57h-29.85v-74.56s-42.89,74.47-42.89,74.47v.09h-33.64s-42.89-74.47-42.89-74.47Z"></path>
      <path stroke-width="0" fill="#231f20" d="M718.76,294.33l-48.56-98.5-48.46,98.5h-32.54s64.78-131.57,64.78-131.57h32.44s64.78,131.57,64.78,131.57h-32.44Z"></path>
      <path stroke-width="0" fill="#231f20" d="M813.99,241.7h-44.38v-26.31h94.54c16.58,0,24.88-4.39,24.88-13.16,0-8.77-8.29-13.16-24.88-13.16h-94.54v-26.31h99.51c33.17,0,49.76,13.16,49.76,39.47,0,26.31-16.59,39.47-49.76,39.47h-9.26s70.06,52.63,70.06,52.63h-45.88s-70.06-52.63-70.06-52.63Z"></path>
      <path stroke-width="0" fill="#231f20" d="M1008.45,189.07h-59.61s-.1-26.31-.1-26.31h149.27v26.31h-59.71s0,105.26,0,105.26h-29.85v-105.26Z"></path>
      <path stroke-width="0" fill="#1785d4" d="M1277.13,268.01v26.31h-149.27v-131.57h29.85v105.26s119.42,0,119.42,0Z"></path>
      <path stroke-width="0" fill="#1785d4" d="M1336.84,294.33h-29.85v-131.57h29.85v131.57Z"></path>
      <path stroke-width="0" fill="#1785d4" d="M1396.55,202.67v91.66h-29.85v-131.57h30.45s88.97,91.66,88.97,91.66v-91.66h29.85v131.57h-30.35s-89.07-91.66-89.07-91.66Z"></path>
      <path stroke-width="0" fill="#1785d4" d="M1545.82,162.76h149.27v26.31h-149.27v-26.31ZM1545.82,215.39h149.27v26.31h-149.27v-26.31ZM1545.82,294.33v-26.31h149.27v26.31h-149.27Z"></path>
      <path stroke-width="0" fill="#1785d4" d="M1769.33,241.7h-44.38v-26.31h94.54c16.58,0,24.88-4.39,24.88-13.16,0-8.77-8.29-13.16-24.88-13.16h-94.54v-26.31h99.51c33.17,0,49.76,13.16,49.76,39.47,0,26.31-16.59,39.47-49.76,39.47h-9.26s70.06,52.63,70.06,52.63h-45.88s-70.06-52.63-70.06-52.63Z"></path>
    </g>
    <path stroke-width="0" fill="#231f20" d="M1948.25,189.41c0,15.25-13.58,27.22-31.25,27.22s-31.44-11.97-31.44-27.22,13.95-26.89,31.44-26.89,31.25,11.97,31.25,26.89ZM1893.37,189.41c0,11.97,10.05,21.48,23.81,21.48s23.25-9.51,23.25-21.32-9.86-21.64-23.44-21.64-23.63,9.67-23.63,21.48ZM1912.16,203.51h-7.07v-26.89c2.79-.49,6.7-.82,11.72-.82,5.77,0,8.37.82,10.6,1.97,1.67,1.15,2.98,3.28,2.98,5.9,0,2.95-2.6,5.25-6.32,6.23v.33c2.98.98,4.65,2.95,5.58,6.56.93,4.1,1.49,5.74,2.23,6.72h-7.63c-.93-.98-1.49-3.44-2.42-6.56-.56-2.95-2.42-4.26-6.33-4.26h-3.35v10.82ZM1912.35,188.26h3.35c3.91,0,7.07-1.15,7.07-3.94,0-2.46-2.05-4.1-6.51-4.1-1.86,0-3.16.16-3.91.33v7.71Z"></path>
  </g>
  <g>
    <path stroke-width="0" fill="#000" d="M429.17,421.62l7.32-63.56h10.34l15.42,50.9,15.33-50.9h10.34l7.49,63.56h-10.34l-5.86-49.96,1.72.17-13.78,49.78h-9.99l-13.95-49.78,1.81-.09-5.6,49.87h-10.25Z"></path>
    <path stroke-width="0" fill="#000" d="M522.27,422.13c-3.45,0-6.26-1.03-8.44-3.1-2.18-2.07-3.27-4.91-3.27-8.53v-3.88c0-3.56,1.22-6.46,3.66-8.7,2.44-2.24,6.19-3.36,11.24-3.36h13.18v-4.05c0-1.61-.29-2.96-.86-4.05-.57-1.09-1.61-1.91-3.1-2.45-1.49-.54-3.76-.82-6.8-.82h-13.95v-6.2c2.12-.57,4.62-1.08,7.49-1.51,2.87-.43,6.29-.65,10.25-.65,3.79-.06,7,.39,9.65,1.33,2.64.95,4.64,2.51,5.99,4.69,1.35,2.18,2.02,5.17,2.02,8.96v31.78h-8.35l-1.81-5c-.4.34-1.12.8-2.15,1.38-1.03.57-2.33,1.19-3.88,1.85-1.55.66-3.26,1.21-5.12,1.64-1.87.43-3.78.65-5.73.65ZM527.44,414.64c.75,0,1.59-.1,2.54-.3.95-.2,1.91-.43,2.89-.69.98-.26,1.88-.52,2.71-.78.83-.26,1.52-.5,2.07-.73.54-.23.87-.37.99-.43v-12.06l-9.99.52c-2.64.23-4.55.92-5.73,2.07-1.18,1.15-1.77,2.67-1.77,4.56v1.9c0,1.44.3,2.6.9,3.49.6.89,1.38,1.51,2.33,1.85.95.34,1.97.55,3.06.6Z"></path>
    <path stroke-width="0" fill="#000" d="M568.52,421.62v-65.72h10.68v36.43h5.86l11.54-16.88h10.94l-14.64,21.7,15.85,24.46h-10.94l-12.92-19.72h-5.68v19.72h-10.68Z"></path>
    <path stroke-width="0" fill="#000" d="M642.25,422.05c-5,0-8.97-.69-11.93-2.07-2.96-1.38-5.1-3.77-6.42-7.19-1.32-3.42-1.98-8.17-1.98-14.25s.63-11.01,1.9-14.43c1.26-3.42,3.36-5.81,6.29-7.19,2.93-1.38,6.89-2.07,11.89-2.07,4.42,0,7.97.45,10.64,1.33,2.67.89,4.62,2.47,5.86,4.74,1.23,2.27,1.85,5.47,1.85,9.6,0,2.93-.57,5.27-1.72,7.02-1.15,1.75-2.8,3-4.95,3.75-2.15.75-4.69,1.12-7.62,1.12h-13.52c.11,2.87.5,5.15,1.16,6.85.66,1.69,1.87,2.92,3.62,3.66,1.75.75,4.32,1.12,7.71,1.12h13.95v6.29c-2.35.46-4.84.86-7.45,1.21-2.61.34-5.7.52-9.26.52ZM632.43,395.95h12.58c2.01,0,3.49-.39,4.44-1.16.95-.77,1.42-2.2,1.42-4.26s-.29-3.59-.86-4.74c-.57-1.15-1.52-1.97-2.84-2.45-1.32-.49-3.04-.73-5.17-.73-2.41,0-4.31.37-5.68,1.12-1.38.75-2.37,2.08-2.97,4-.6,1.92-.9,4.67-.9,8.23Z"></path>
    <path stroke-width="0" fill="#000" d="M726.4,421.62c-3.33,0-6.06-.5-8.18-1.51-2.12-1-3.66-2.68-4.61-5.04-.95-2.35-1.39-5.45-1.33-9.3l.34-21.71h-7.23v-6.89l7.58-1.72,1.55-12.92h8.35v12.92h11.71v8.61h-11.71v21.62c0,1.49.14,2.71.43,3.66.29.95.7,1.69,1.25,2.24.54.55,1.13.93,1.77,1.16.63.23,1.29.37,1.98.43l5.77.6v7.84h-7.67Z"></path>
    <path stroke-width="0" fill="#000" d="M751.03,421.62v-65.63h10.68v24.29c1.84-1.38,4.15-2.66,6.93-3.83,2.78-1.18,5.64-1.77,8.57-1.77,3.39,0,6.13.69,8.23,2.07,2.1,1.38,3.62,3.29,4.56,5.73.95,2.44,1.42,5.21,1.42,8.31v30.83h-10.68v-29.54c0-1.61-.32-3-.95-4.18-.63-1.18-1.52-2.07-2.67-2.67-1.15-.6-2.5-.9-4.05-.9s-2.87.16-4.13.47c-1.26.32-2.48.76-3.66,1.33-1.18.57-2.37,1.24-3.57,1.98v33.5h-10.68Z"></path>
    <path stroke-width="0" fill="#000" d="M829.58,422.05c-5,0-8.97-.69-11.93-2.07-2.96-1.38-5.1-3.77-6.42-7.19-1.32-3.42-1.98-8.17-1.98-14.25s.63-11.01,1.9-14.43c1.26-3.42,3.36-5.81,6.29-7.19,2.93-1.38,6.89-2.07,11.89-2.07,4.42,0,7.97.45,10.64,1.33,2.67.89,4.62,2.47,5.86,4.74,1.23,2.27,1.85,5.47,1.85,9.6,0,2.93-.57,5.27-1.72,7.02-1.15,1.75-2.8,3-4.95,3.75-2.15.75-4.69,1.12-7.62,1.12h-13.52c.11,2.87.5,5.15,1.16,6.85.66,1.69,1.87,2.92,3.62,3.66,1.75.75,4.32,1.12,7.71,1.12h13.95v6.29c-2.35.46-4.84.86-7.45,1.21-2.61.34-5.7.52-9.26.52ZM819.76,395.95h12.58c2.01,0,3.49-.39,4.44-1.16.95-.77,1.42-2.2,1.42-4.26s-.29-3.59-.86-4.74c-.57-1.15-1.52-1.97-2.84-2.45-1.32-.49-3.04-.73-5.17-.73-2.41,0-4.31.37-5.68,1.12-1.38.75-2.37,2.08-2.97,4-.6,1.92-.9,4.67-.9,8.23Z"></path>
    <path stroke-width="0" fill="#000" d="M916.22,422.13c-1.55,0-3.2-.04-4.95-.13-1.75-.09-3.53-.23-5.34-.43-1.81-.2-3.52-.4-5.12-.6-1.61-.2-3.04-.44-4.31-.73v-8.35c1.61.12,3.49.23,5.64.34,2.15.12,4.41.2,6.76.26,2.35.06,4.62.09,6.8.09,2.3,0,4.33-.22,6.12-.65,1.78-.43,3.16-1.19,4.13-2.28.98-1.09,1.46-2.64,1.46-4.65v-3.01c0-2.24-.63-3.96-1.89-5.17-1.26-1.21-3.13-1.81-5.6-1.81h-5.94c-5.8,0-10.26-1.26-13.39-3.79-3.13-2.53-4.69-6.86-4.69-13.01v-3.27c0-6.14,1.71-10.58,5.12-13.31,3.42-2.73,8.31-4.09,14.69-4.09,2.18,0,4.44.1,6.76.3,2.33.2,4.55.45,6.67.73,2.12.29,3.93.6,5.43.95v8.35c-2.53-.17-5.41-.34-8.66-.52-3.24-.17-6.24-.26-9-.26-2.18,0-4.11.23-5.77.69-1.67.46-2.93,1.28-3.79,2.45-.86,1.18-1.29,2.92-1.29,5.21v2.07c0,2.7.73,4.59,2.2,5.68,1.46,1.09,3.57,1.64,6.33,1.64h6.63c3.73,0,6.8.69,9.22,2.07,2.41,1.38,4.21,3.26,5.38,5.64,1.18,2.38,1.77,5.1,1.77,8.14v4.05c0,4.71-.92,8.33-2.76,10.85-1.84,2.53-4.36,4.25-7.58,5.17-3.22.92-6.89,1.38-11.02,1.38Z"></path>
    <path stroke-width="0" fill="#000" d="M955.93,421.62v-46.17h8.7l1.98,4.82c2.12-1.49,4.46-2.8,7.02-3.92,2.55-1.12,5.58-1.68,9.09-1.68,2.87,0,5.3.62,7.28,1.85,1.98,1.24,3.46,2.83,4.44,4.78,1.32-1.03,2.91-2.05,4.78-3.06,1.87-1,3.86-1.85,5.99-2.54,2.12-.69,4.22-1.03,6.29-1.03,3.56,0,6.42.7,8.57,2.11,2.15,1.41,3.69,3.36,4.61,5.86.92,2.5,1.38,5.38,1.38,8.66v30.32h-10.68v-29.46c0-1.66-.32-3.07-.95-4.22-.63-1.15-1.51-2.04-2.63-2.67-1.12-.63-2.48-.95-4.09-.95-2.07,0-4.15.4-6.25,1.21-2.1.8-4,1.78-5.73,2.93.23.57.39,1.21.47,1.9.09.69.13,1.38.13,2.07v29.2h-10.68v-29.46c0-1.66-.32-3.07-.95-4.22-.63-1.15-1.51-2.04-2.63-2.67-1.12-.63-2.48-.95-4.09-.95-1.49,0-2.89.14-4.18.43-1.29.29-2.51.72-3.66,1.29-1.15.57-2.33,1.26-3.53,2.07v33.5h-10.68Z"></path>
    <path stroke-width="0" fill="#000" d="M1054.81,422.13c-3.45,0-6.26-1.03-8.44-3.1-2.18-2.07-3.27-4.91-3.27-8.53v-3.88c0-3.56,1.22-6.46,3.66-8.7,2.44-2.24,6.19-3.36,11.24-3.36h13.18v-4.05c0-1.61-.29-2.96-.86-4.05-.58-1.09-1.61-1.91-3.1-2.45-1.49-.54-3.76-.82-6.8-.82h-13.95v-6.2c2.12-.57,4.62-1.08,7.49-1.51,2.87-.43,6.29-.65,10.25-.65,3.79-.06,7,.39,9.65,1.33,2.64.95,4.64,2.51,5.99,4.69,1.35,2.18,2.02,5.17,2.02,8.96v31.78h-8.35l-1.81-5c-.4.34-1.12.8-2.15,1.38-1.03.57-2.33,1.19-3.88,1.85-1.55.66-3.26,1.21-5.12,1.64-1.87.43-3.78.65-5.73.65ZM1059.97,414.64c.75,0,1.59-.1,2.54-.3.95-.2,1.91-.43,2.88-.69.98-.26,1.88-.52,2.71-.78.83-.26,1.52-.5,2.07-.73.55-.23.88-.37.99-.43v-12.06l-9.99.52c-2.64.23-4.55.92-5.73,2.07-1.18,1.15-1.77,2.67-1.77,4.56v1.9c0,1.44.3,2.6.9,3.49.6.89,1.38,1.51,2.33,1.85.95.34,1.97.55,3.06.6Z"></path>
    <path stroke-width="0" fill="#000" d="M1101.06,421.62v-46.17h8.27l2.41,7.41c1.84-2.24,3.88-4.13,6.12-5.68s4.91-2.33,8.01-2.33c.63,0,1.29.04,1.98.13.69.09,1.32.22,1.89.39v10.85c-.8-.11-1.67-.2-2.58-.26-.92-.06-1.81-.09-2.67-.09-1.78,0-3.4.2-4.87.6-1.46.4-2.83,1.02-4.09,1.85-1.26.83-2.53,1.88-3.79,3.14v30.15h-10.68Z"></path>
    <path stroke-width="0" fill="#000" d="M1163.41,421.62c-3.33,0-6.06-.5-8.18-1.51-2.12-1-3.66-2.68-4.61-5.04-.95-2.35-1.39-5.45-1.33-9.3l.34-21.71h-7.23v-6.89l7.58-1.72,1.55-12.92h8.35v12.92h11.71v8.61h-11.71v21.62c0,1.49.14,2.71.43,3.66.29.95.7,1.69,1.25,2.24.54.55,1.13.93,1.77,1.16.63.23,1.29.37,1.98.43l5.77.6v7.84h-7.67Z"></path>
    <path stroke-width="0" fill="#000" d="M1240.93,422.13c-3.73,0-7.02-.43-9.86-1.29-2.84-.86-5.23-2.44-7.15-4.74-1.92-2.3-3.37-5.57-4.35-9.82-.98-4.25-1.46-9.82-1.46-16.71,0-6.49.5-11.83,1.51-16.02,1-4.19,2.5-7.46,4.48-9.82,1.98-2.35,4.41-3.99,7.28-4.91,2.87-.92,6.14-1.38,9.82-1.38,2.53,0,4.98.14,7.36.43,2.38.29,4.59.63,6.63,1.03,2.04.4,3.8.83,5.3,1.29v8.18c-.98-.23-2.36-.44-4.13-.65-1.78-.2-3.79-.37-6.03-.52-2.24-.14-4.57-.22-6.98-.22-2.64,0-4.9.3-6.76.9-1.87.6-3.37,1.71-4.52,3.32-1.15,1.61-1.98,3.91-2.5,6.89-.52,2.99-.78,6.86-.78,11.63s.24,8.56.73,11.54c.49,2.99,1.26,5.3,2.33,6.93,1.06,1.64,2.53,2.77,4.39,3.4,1.87.63,4.21.95,7.02.95,4.31,0,7.84-.1,10.59-.3,2.76-.2,4.97-.42,6.63-.65v8.18c-1.61.46-3.43.86-5.47,1.21-2.04.34-4.22.62-6.55.82-2.33.2-4.84.3-7.54.3Z"></path>
    <path stroke-width="0" fill="#000" d="M1278.14,421.62v-65.63h10.68v24.29c1.84-1.38,4.15-2.66,6.93-3.83,2.78-1.18,5.64-1.77,8.57-1.77,3.39,0,6.13.69,8.23,2.07,2.1,1.38,3.62,3.29,4.57,5.73.95,2.44,1.42,5.21,1.42,8.31v30.83h-10.68v-29.54c0-1.61-.32-3-.95-4.18-.63-1.18-1.52-2.07-2.67-2.67-1.15-.6-2.5-.9-4.05-.9s-2.87.16-4.13.47c-1.26.32-2.48.76-3.66,1.33-1.18.57-2.37,1.24-3.57,1.98v33.5h-10.68Z"></path>
    <path stroke-width="0" fill="#000" d="M1357.12,422.05c-3.62,0-6.75-.37-9.39-1.12-2.64-.75-4.79-2.01-6.46-3.79-1.67-1.78-2.9-4.19-3.7-7.24-.8-3.04-1.21-6.86-1.21-11.46s.4-8.68,1.21-11.76c.8-3.07,2.05-5.48,3.75-7.23,1.69-1.75,3.86-2.96,6.5-3.62,2.64-.66,5.74-.99,9.3-.99s6.83.36,9.47,1.08c2.64.72,4.79,1.94,6.46,3.66,1.67,1.72,2.9,4.12,3.7,7.19.8,3.07,1.21,6.96,1.21,11.67s-.39,8.51-1.16,11.58c-.78,3.07-2,5.48-3.66,7.23-1.67,1.75-3.82,2.99-6.46,3.7-2.64.72-5.83,1.08-9.56,1.08ZM1357.12,413.52c1.78,0,3.3-.16,4.56-.47,1.26-.31,2.31-.98,3.14-1.98.83-1,1.45-2.53,1.85-4.56.4-2.04.6-4.75.6-8.14s-.2-6-.6-8.01c-.4-2.01-1.02-3.52-1.85-4.52-.83-1-1.88-1.66-3.14-1.98-1.26-.31-2.79-.47-4.56-.47s-3.22.16-4.48.47c-1.26.32-2.3.98-3.1,1.98-.8,1.01-1.42,2.51-1.85,4.52-.43,2.01-.65,4.68-.65,8.01s.22,6.1.65,8.14c.43,2.04,1.05,3.56,1.85,4.56.8,1.01,1.84,1.67,3.1,1.98,1.26.32,2.76.47,4.48.47Z"></path>
    <path stroke-width="0" fill="#000" d="M1397.43,368.13c-1.09,0-1.64-.52-1.64-1.55v-7.84c0-1.15.54-1.72,1.64-1.72h8.1c.52,0,.9.17,1.16.52.26.34.39.75.39,1.21v7.84c0,1.03-.52,1.55-1.55,1.55h-8.1ZM1396.05,421.62v-46.17h10.68v46.17h-10.68Z"></path>
    <path stroke-width="0" fill="#000" d="M1443.94,422.13c-2.76,0-5.3-.36-7.62-1.08-2.33-.72-4.35-1.95-6.07-3.7-1.72-1.75-3.06-4.15-4-7.19-.95-3.04-1.42-6.86-1.42-11.46s.44-8.61,1.33-11.71c.89-3.1,2.17-5.54,3.83-7.32,1.67-1.78,3.69-3.03,6.07-3.75,2.38-.72,5.09-1.08,8.14-1.08,2.58,0,5.2.13,7.84.39,2.64.26,5.28.73,7.92,1.42v6.12h-12.57c-2.76,0-5,.43-6.72,1.29s-3.01,2.44-3.88,4.74c-.86,2.3-1.29,5.6-1.29,9.9s.43,7.48,1.29,9.69c.86,2.21,2.17,3.7,3.92,4.48,1.75.78,4.01,1.16,6.76,1.16h13.18v6.03c-1.38.4-2.99.76-4.82,1.08-1.84.32-3.78.56-5.81.73-2.04.17-4.06.26-6.07.26Z"></path>
    <path stroke-width="0" fill="#000" d="M1495.96,422.05c-5,0-8.97-.69-11.93-2.07-2.96-1.38-5.1-3.77-6.42-7.19-1.32-3.42-1.98-8.17-1.98-14.25s.63-11.01,1.89-14.43c1.26-3.42,3.36-5.81,6.29-7.19,2.93-1.38,6.89-2.07,11.89-2.07,4.42,0,7.97.45,10.64,1.33,2.67.89,4.62,2.47,5.86,4.74,1.23,2.27,1.85,5.47,1.85,9.6,0,2.93-.58,5.27-1.72,7.02-1.15,1.75-2.8,3-4.95,3.75-2.15.75-4.69,1.12-7.62,1.12h-13.52c.11,2.87.5,5.15,1.16,6.85.66,1.69,1.87,2.92,3.62,3.66,1.75.75,4.32,1.12,7.71,1.12h13.95v6.29c-2.36.46-4.84.86-7.45,1.21-2.61.34-5.7.52-9.26.52ZM1486.14,395.95h12.58c2.01,0,3.49-.39,4.44-1.16.95-.77,1.42-2.2,1.42-4.26s-.29-3.59-.86-4.74c-.57-1.15-1.52-1.97-2.84-2.45-1.32-.49-3.04-.73-5.17-.73-2.41,0-4.31.37-5.68,1.12-1.38.75-2.37,2.08-2.97,4-.6,1.92-.9,4.67-.9,8.23Z"></path>
    <path stroke-width="0" fill="#000" d="M1533.25,421.7c-1.09,0-1.64-.52-1.64-1.55v-8.18c0-1.09.54-1.64,1.64-1.64h6.12c1.09,0,1.64.55,1.64,1.64v8.18c0,.57-.16.98-.47,1.21-.32.23-.7.34-1.16.34h-6.12Z"></path>
  </g>
</svg>