<svg width="16" height="12" viewBox="0 0 16 12" fill="none" xmlns="http://www.w3.org/2000/svg">
<path d="M15.6657 1.76024C15.4817 1.06737 14.9395 0.521689 14.2511 0.336504C13.0033 0 8 0 8 0C8 0 2.99669 0 1.7489 0.336504C1.06052 0.521718 0.518349 1.06737 0.334336 1.76024C0 3.01611 0 5.63636 0 5.63636C0 5.63636 0 8.25661 0.334336 9.51248C0.518349 10.2053 1.06052 10.7283 1.7489 10.9135C2.99669 11.25 8 11.25 8 11.25C8 11.25 13.0033 11.25 14.2511 10.9135C14.9395 10.7283 15.4817 10.2053 15.6657 9.51248C16 8.25661 16 5.63636 16 5.63636C16 5.63636 16 3.01611 15.6657 1.76024ZM6.36363 8.01535V3.25737L10.5454 5.63642L6.36363 8.01535Z" fill="white"/>
</svg>
